<?xml version="1.0" encoding="UTF-8"?>
<!DOCTYPE svg PUBLIC "-//W3C//DTD SVG 1.1//EN" "http://www.w3.org/Graphics/SVG/1.1/DTD/svg11.dtd">
<!-- Creator: CorelDRAW Home & Student X7 -->
<svg xmlns="http://www.w3.org/2000/svg" xml:space="preserve" width="150px" height="50px" version="1.1" style="shape-rendering:geometricPrecision; text-rendering:geometricPrecision; image-rendering:optimizeQuality; fill-rule:evenodd; clip-rule:evenodd"
viewBox="0 0 150 50"
 xmlns:xlink="http://www.w3.org/1999/xlink">
 <defs>
  <style type="text/css">
   <![CDATA[
    .str0 {stroke:#2FB572;stroke-width:0.9}
    .fil1 {fill:#FEFEFE}
    .fil0 {fill:#2FB572}
   ]]>
  </style>
 </defs>
 <g id="Layer_x0020_1">
  <metadata id="CorelCorpID_0Corel-Layer"/>
  <path class="fil0" d="M-65 -203c-10,0 -18,8 -18,18 0,10 8,19 18,19 11,0 19,-9 19,-19 0,-10 -8,-18 -19,-18l0 0zm0 9c6,0 10,4 10,9 0,6 -4,10 -10,10 -5,0 -9,-4 -9,-10 0,-5 4,-9 9,-9z"/>
  <path class="fil0" d="M113 -203c-10,0 -18,8 -18,18 0,10 8,19 18,19 11,0 19,-9 19,-19 0,-10 -8,-18 -19,-18l0 0zm0 9c6,0 10,4 10,9 0,6 -4,10 -10,10 -5,0 -9,-4 -9,-10 0,-5 4,-9 9,-9z"/>
  <path class="fil0" d="M140 18c-16,0 -30,13 -30,30 0,17 14,30 30,30 17,0 31,-13 31,-30 0,-17 -14,-30 -31,-30l0 0zm0 9c12,0 22,9 22,21 0,12 -10,21 -22,21 -11,0 -21,-9 -21,-21 0,-12 10,-21 21,-21z"/>
  <path class="fil0" d="M55 60c-6,0 -13,-3 -18,-8 -13,-12 -16,-27 -16,-40 -2,-17 -1,-47 -1,-62l9 0c-1,15 -1,45 0,62 1,16 5,25 14,33 5,5 10,7 15,6 6,-1 11,-8 14,-14 3,-5 5,-10 7,-14 13,-24 19,-35 34,-35 18,0 29,24 29,32l-9 0c0,-5 -8,-23 -20,-23 -9,0 -13,6 -26,30 -2,4 -5,9 -8,15 -4,7 -9,15 -19,18 -1,0 -3,0 -5,0z"/>
  <path class="fil0" d="M24 -45c-85,0 -93,-128 -93,-129l9 -1c0,1 7,121 84,121 78,0 85,-120 85,-121l9 1c-1,1 -8,129 -94,129z"/>
  <path class="fil1 str0" d="M162 48c0,12 -9,22 -22,22 -12,0 -21,-10 -21,-22 0,-12 9,-22 21,-22 13,0 22,10 22,22z"/>
  <path class="fil1" d="M123 -185c0,6 -4,10 -10,10 -5,0 -10,-4 -10,-10 0,-5 5,-10 10,-10 6,0 10,5 10,10z"/>
  <path class="fil1" d="M-55 -185c0,6 -4,10 -10,10 -5,0 -9,-4 -9,-10 0,-5 4,-10 9,-10 6,0 10,5 10,10z"/>
 </g>
</svg>
